<?xml version="1.0" encoding="UTF-8"?>
<svg width="200px" height="26px" viewBox="0 0 200 26" version="1.1" xmlns="http://www.w3.org/2000/svg" xmlns:xlink="http://www.w3.org/1999/xlink">
    <title>Powered by</title>
    <defs>
        <path d="M7.06586754,11.7303898 C7.08034877,6.21981134 11.543204,1.7566138 17.0519099,1.74358142 C17.3548366,1.74358142 17.6551291,1.76202672 17.9501533,1.78837713 C13.0367171,-1.2887464 6.61297407,-0.312998487 2.83413174,4.08445691 C-0.944710581,8.48191231 -0.944710581,14.9815023 2.83413174,19.3789577 C6.61297407,23.7764131 13.0367171,24.752161 17.9501533,21.6750375 C17.6551291,21.7013879 17.3548366,21.7198332 17.0519099,21.7198332 C11.5421789,21.7067948 7.07890152,17.2419973 7.06586754,11.7303898 Z" id="path-1"></path>
        <filter x="-167.1%" y="-127.9%" width="434.3%" height="355.7%" filterUnits="objectBoundingBox" id="filter-3">
            <feGaussianBlur stdDeviation="10" in="SourceGraphic"></feGaussianBlur>
        </filter>
        <filter x="-4780.2%" y="-4586.5%" width="9660.4%" height="9273.1%" filterUnits="objectBoundingBox" id="filter-4">
            <feGaussianBlur stdDeviation="20" in="SourceGraphic"></feGaussianBlur>
        </filter>
        <filter x="-4780.2%" y="-4586.5%" width="9660.4%" height="9273.1%" filterUnits="objectBoundingBox" id="filter-5">
            <feGaussianBlur stdDeviation="20" in="SourceGraphic"></feGaussianBlur>
        </filter>
        <filter x="-3186.8%" y="-3057.7%" width="6473.6%" height="6215.4%" filterUnits="objectBoundingBox" id="filter-6">
            <feGaussianBlur stdDeviation="20" in="SourceGraphic"></feGaussianBlur>
        </filter>
        <filter x="-3186.8%" y="-3057.7%" width="6473.6%" height="6215.4%" filterUnits="objectBoundingBox" id="filter-7">
            <feGaussianBlur stdDeviation="20" in="SourceGraphic"></feGaussianBlur>
        </filter>
        <filter x="-3186.8%" y="-3057.7%" width="6473.6%" height="6215.4%" filterUnits="objectBoundingBox" id="filter-8">
            <feGaussianBlur stdDeviation="20" in="SourceGraphic"></feGaussianBlur>
        </filter>
        <filter x="-2390.1%" y="-2293.3%" width="4880.2%" height="4686.5%" filterUnits="objectBoundingBox" id="filter-9">
            <feGaussianBlur stdDeviation="20" in="SourceGraphic"></feGaussianBlur>
        </filter>
    </defs>
    <g id="Powered-by" stroke="none" stroke-width="1" fill="none" fill-rule="evenodd">
        <g id="Powered" transform="translate(0.000000, 0.000000)">
            <g id="COOKIES" transform="translate(149.000000, 14.000000)" fill="#694C3C">
                <path d="M45,10 L45,8.75 L49.9473684,8.75 L49.9473684,5 L45,5 L45,0 L48.7105263,0 L48.7105263,1.25 L46.236,1.25 L46.2368421,3.75 L51.1842105,3.75 L51.1842105,10 L45,10 Z" id="S"></path>
                <path d="M37.5,10 L37.5,3.75 L38.7368421,3.75 L38.7368421,0 L43.6842105,0 L43.6842105,1.25 L39.9736842,1.25 L39.9736842,3.75 L41.2105263,3.75 L41.2105263,5 L38.7368421,5 L38.7368421,8.75 L43.6842105,8.75 L43.6842105,10 L37.5,10 Z" id="E"></path>
                <path d="M32.4736842,1.25 L30,1.25 L30,0 L36.1842105,0 L36.1842105,1.25 L33.7105263,1.25 L33.7105263,8.75 L36.1842105,8.75 L36.1842105,10 L30,10 L30,8.75 L32.4736842,8.75 L32.4736842,1.25 Z" id="I"></path>
                <path d="M23.7368421,0 L23.736,4.688 L24.973,3.125 L24.9736842,3.125 L24.974,3.124 L27.4473684,0 L28.6842105,0 L26.2105263,3.125 L28.6842105,7.5 L28.6842105,10 L27.4473684,10 L27.4473684,7.5 L25.489,4.036 L23.7368421,6.25 L23.7368421,10 L22.5,10 L22.5,0 L23.7368421,0 Z" id="K"></path>
                <path d="M19.9473684,8.75 L19.9473684,1.25 L16.2368421,1.25 L16.2368421,8.75 L19.9473684,8.75 Z M21.1842105,10 L15,10 L15,0 L21.1842105,0 L21.1842105,10 Z" id="O"></path>
                <path d="M12.4473684,8.75 L12.4473684,1.25 L8.73684211,1.25 L8.73684211,8.75 L12.4473684,8.75 Z M13.6842105,10 L7.5,10 L7.5,0 L13.6842105,0 L13.6842105,10 Z" id="O"></path>
                <path d="M4.94736842,8.75 L4.94736842,7.5 L6.18421053,7.5 L6.18421053,10 L0,10 L0,0 L6.18421053,0 L6.18421053,2.5 L4.94736842,2.5 L4.94736842,1.25 L1.23684211,1.25 L1.23684211,8.75 L4.94736842,8.75 Z" id="C"></path>
            </g>
            <g id="BIT" transform="translate(149.000000, 2.000000)" fill="#BC8D5C">
                <path d="M15,1.25 L15,0 L21.1842105,0 L21.1842105,1.25 L18.7105263,1.25 L18.7105263,10 L17.4736842,10 L17.4736842,1.25 L15,1.25 Z" id="T"></path>
                <path d="M9.97368421,1.25 L7.5,1.25 L7.5,0 L13.6842105,0 L13.6842105,1.25 L11.2105263,1.25 L11.2105263,8.75 L13.6842105,8.75 L13.6842105,10 L7.5,10 L7.5,8.75 L9.97368421,8.75 L9.97368421,1.25 Z" id="I"></path>
                <path d="M4.94736842,8.75 L4.94736842,6.25 L1.23684211,6.25 L1.23684211,8.75 L4.94736842,8.75 Z M3.09210526,1.25 L1.23684211,1.25 L1.23684211,5 L3.09210526,5 L3.09210526,1.25 Z M6.18421053,10 L0,10 L0,0 L4.32894737,0 L4.32894737,5 L6.18421053,5 L6.18421053,10 Z" id="B"></path>
            </g>
            <g id="Logo" transform="translate(119.000000, 0.000000)">
                <g id="Cookies">
                    <circle id="Outside-Shadow" fill="#FCDBB6" fill-rule="nonzero" cx="13" cy="13" r="13"></circle>
                    <circle id="Outside-Circle" fill="#5D4131" fill-rule="nonzero" cx="13" cy="13" r="12.6829268"></circle>
                    <circle id="Outside-Circle-Color" fill="#FCDBB6" cx="13.3170732" cy="13.3170732" r="11.7317073"></circle>
                    <g id="Outside-Circle-Color-Shadow" transform="translate(1.585366, 1.585366)">
                        <mask id="mask-2" fill="white">
                            <use xlink:href="#path-1"></use>
                        </mask>
                        <g id="Outside-Circle-Color-Shadow-2" fill-rule="nonzero"></g>
                        <path d="M7.06586754,11.7303898 C7.08034877,6.21981134 11.543204,1.7566138 17.0519099,1.74358142 C17.3548366,1.74358142 17.6551291,1.76202672 17.9501533,1.78837713 C13.0367171,-1.2887464 6.61297407,-0.312998487 2.83413174,4.08445691 C-0.944710581,8.48191231 -0.944710581,14.9815023 2.83413174,19.3789577 C6.61297407,23.7764131 13.0367171,24.752161 17.9501533,21.6750375 C17.6551291,21.7013879 17.3548366,21.7198332 17.0519099,21.7198332 C11.5421789,21.7067948 7.07890152,17.2419973 7.06586754,11.7303898 Z" id="Outside-Circle-Color-Shadow-1" fill="#FFCB94" fill-rule="nonzero" filter="url(#filter-3)" mask="url(#mask-2)"></path>
                    </g>
                    <circle id="Inside-Circle-Color" fill="#BC8D5C" cx="13.1902439" cy="13.1902439" r="10.4634146"></circle>
                    <path d="M12.3660107,1.58536615 C8.00554141,1.58536615 4.07448011,4.21218672 2.40604,8.24083423 C0.737599885,12.2694817 1.66038846,16.9064946 4.74407201,19.9894459 C7.82775557,23.0723973 12.4649874,23.9940845 16.4932385,22.3246876 C20.5214896,20.6552907 23.147376,16.7236056 23.1463409,12.3631363 C23.1463409,9.50425044 22.0104774,6.76249445 19.9886998,4.74119691 C17.9669222,2.71989937 15.2248965,1.58468738 12.3660107,1.58536615 L12.3660107,1.58536615 Z M12.5912943,22.1348117 C7.02413677,22.131983 2.51309146,17.6171178 2.51497557,12.0499598 C2.51686085,6.48280182 7.03096204,1.970992 12.5981202,1.97193384 C18.1652784,1.97287598 22.6778532,6.48621316 22.6778532,12.0533715 C22.6778532,14.7280227 21.6150022,17.2930523 19.7232581,19.1838361 C17.8315141,21.0746199 15.2659451,22.1361688 12.5912943,22.1348117 Z" id="Inside-Circle" fill="#725342" fill-rule="nonzero"></path>
                </g>
                <g id="Chocolate" transform="translate(4.333333, 4.333333)">
                    <g id="40" transform="translate(2.824138, 0.327044)">
                        <ellipse fill="#725342" cx="1.25517241" cy="1.3081761" rx="1.25517241" ry="1.3081761"></ellipse>
                        <ellipse id="20" fill="#5D4131" filter="url(#filter-4)" cx="1.25517241" cy="1.3081761" rx="1" ry="1"></ellipse>
                    </g>
                    <g id="40" transform="translate(6.589655, 14.716981)">
                        <ellipse fill="#725342" cx="1.25517241" cy="1.3081761" rx="1.25517241" ry="1.3081761"></ellipse>
                        <ellipse id="20" fill="#5D4131" filter="url(#filter-5)" cx="1.25517241" cy="1.3081761" rx="1" ry="1"></ellipse>
                    </g>
                    <g id="50" transform="translate(0.000000, 11.773585)">
                        <ellipse fill="#725342" cx="1.56896552" cy="1.63522013" rx="1.56896552" ry="1.63522013"></ellipse>
                        <ellipse id="30" fill="#5D4131" filter="url(#filter-6)" cx="1.56896552" cy="1.63522013" rx="1" ry="1"></ellipse>
                    </g>
                    <g id="50" transform="translate(13.806897, 13.081761)">
                        <ellipse fill="#725342" cx="1.56896552" cy="1.63522013" rx="1.56896552" ry="1.63522013"></ellipse>
                        <ellipse id="30" fill="#5D4131" filter="url(#filter-7)" cx="1.56896552" cy="1.63522013" rx="1" ry="1"></ellipse>
                    </g>
                    <g id="50" transform="translate(15.062069, 0.000000)">
                        <ellipse fill="#725342" cx="1.56896552" cy="1.63522013" rx="1.56896552" ry="1.63522013"></ellipse>
                        <ellipse id="30" fill="#5D4131" filter="url(#filter-8)" cx="1.56896552" cy="1.63522013" rx="1" ry="1"></ellipse>
                    </g>
                    <g id="60" transform="translate(8.472414, 6.213836)">
                        <ellipse fill="#725342" cx="1.88275862" cy="1.96226415" rx="1.88275862" ry="1.96226415"></ellipse>
                        <ellipse id="40" fill="#5D4131" filter="url(#filter-9)" cx="1.88275862" cy="1.96226415" rx="1.25517241" ry="1.3081761"></ellipse>
                    </g>
                </g>
            </g>
            <g id="Powered-by" transform="translate(0.000000, 3.000000)" fill="#654C3E" fill-rule="nonzero">
                <path d="M0,0.340909091 L5.22727273,0.340909091 C6.59090909,0.340909091 7.72727273,0.795454545 8.63636364,1.59090909 C9.54545455,2.38636364 9.88636364,3.52272727 9.88636364,4.88636364 C9.88636364,5.79545455 9.65909091,6.59090909 9.20454545,7.38636364 C8.75,8.18181818 8.18181818,8.75 7.27272727,9.20454545 C6.36363636,9.54545455 5.68181818,9.77272727 5.11363636,9.77272727 L3.18181818,9.77272727 L3.18181818,15.6818182 L0,15.6818182 L0,0.340909091 Z M3.29545455,3.06818182 L3.29545455,7.04545455 L4.54545455,7.04545455 C5.11363636,7.04545455 5.56818182,6.81818182 6.02272727,6.47727273 C6.47727273,6.13636364 6.59090909,5.56818182 6.59090909,5.11363636 C6.59090909,4.54545455 6.36363636,3.97727273 5.90909091,3.63636364 C5.45454545,3.18181818 4.88636364,3.06818182 3.97727273,3.06818182 L3.29545455,3.06818182 Z" id="P"></path>
                <path d="M10.7954545,10.6818182 C10.7954545,9.09090909 11.25,7.84090909 12.2727273,6.93181818 C13.2954545,6.02272727 14.5454545,5.45454545 16.1363636,5.45454545 C17.6136364,5.45454545 18.75,5.90909091 19.7727273,6.93181818 C20.7954545,7.95454545 21.25,9.20454545 21.25,10.6818182 C21.25,12.1590909 20.7954545,13.4090909 19.7727273,14.4318182 C18.75,15.4545455 17.6136364,15.9090909 16.1363636,15.9090909 C14.4318182,15.9090909 13.1818182,15.3409091 12.2727273,14.3181818 C11.25,13.1818182 10.7954545,12.0454545 10.7954545,10.6818182 Z M18.2954545,10.6818182 C18.2954545,10 18.0681818,9.43181818 17.6136364,8.86363636 C17.1590909,8.40909091 16.7045455,8.06818182 16.0227273,8.06818182 C15.4545455,8.06818182 14.8863636,8.29545455 14.4318182,8.75 C13.9772727,9.20454545 13.75,9.77272727 13.75,10.4545455 C13.75,11.1363636 13.9772727,11.8181818 14.4318182,12.2727273 C14.8863636,12.7272727 15.4545455,13.0681818 16.0227273,13.0681818 C16.5909091,13.0681818 17.1590909,12.8409091 17.6136364,12.2727273 C18.0681818,11.9318182 18.2954545,11.3636364 18.2954545,10.6818182 Z" id="o"></path>
                <polygon id="w" points="22.1590909 5.56818182 25.3409091 5.56818182 28.0681818 11.5909091 30.4545455 5.56818182 32.3863636 5.56818182 34.7727273 11.4772727 37.5 5.56818182 40.6818182 5.56818182 36.1363636 15.6818182 33.6363636 15.6818182 31.4772727 10.2272727 29.3181818 15.6818182 26.8181818 15.6818182"></polygon>
                <path d="M51.7045455,11.3636364 L44.5454545,11.3636364 C44.5454545,12.0454545 44.7727273,12.5 45.2272727,12.9545455 C45.6818182,13.4090909 46.0227273,13.5227273 46.5909091,13.5227273 C47.5,13.5227273 48.1818182,13.0681818 48.75,12.2727273 L51.4772727,13.1818182 C50.4545455,15 48.8636364,15.9090909 46.7045455,15.9090909 C45.1136364,15.9090909 43.8636364,15.4545455 42.9545455,14.4318182 C42.0454545,13.5227273 41.5909091,12.1590909 41.5909091,10.5681818 C41.5909091,9.09090909 42.0454545,7.84090909 43.0681818,6.93181818 C44.0909091,5.90909091 45.2272727,5.45454545 46.7045455,5.45454545 C48.1818182,5.45454545 49.3181818,6.02272727 50.3409091,7.04545455 C51.3636364,8.06818182 51.8181818,9.43181818 51.8181818,10.9090909 L51.8181818,11.3636364 L51.7045455,11.3636364 Z M44.5454545,9.31818182 L48.6363636,9.31818182 C48.4090909,8.06818182 47.7272727,7.38636364 46.7045455,7.38636364 C46.1363636,7.38636364 45.6818182,7.5 45.2272727,7.84090909 C44.8863636,8.29545455 44.6590909,8.75 44.5454545,9.31818182 Z" id="e"></path>
                <path d="M56.7045455,5.56818182 L56.7045455,7.04545455 L56.7045455,7.04545455 C57.0454545,6.59090909 57.3863636,6.13636364 57.7272727,5.90909091 C58.0681818,5.56818182 58.5227273,5.45454545 58.8636364,5.45454545 C59.0909091,5.45454545 59.2045455,5.45454545 59.4318182,5.45454545 L59.4318182,8.75 C59.2045455,8.75 58.9772727,8.63636364 58.75,8.63636364 C58.1818182,8.63636364 57.6136364,8.86363636 57.2727273,9.31818182 C56.9318182,9.77272727 56.8181818,10.3409091 56.8181818,11.1363636 L56.8181818,15.5681818 L53.75,15.5681818 L53.75,5.45454545 L56.7045455,5.45454545 L56.7045455,5.56818182 Z" id="r"></path>
                <path d="M71.1363636,11.3636364 L63.9772727,11.3636364 C63.9772727,12.0454545 64.2045455,12.5 64.6590909,12.9545455 C65.1136364,13.4090909 65.4545455,13.5227273 66.0227273,13.5227273 C66.9318182,13.5227273 67.6136364,13.0681818 68.1818182,12.2727273 L70.9090909,13.1818182 C69.8863636,15 68.2954545,15.9090909 66.1363636,15.9090909 C64.5454545,15.9090909 63.2954545,15.4545455 62.3863636,14.4318182 C61.4772727,13.5227273 61.0227273,12.1590909 61.0227273,10.5681818 C61.0227273,9.09090909 61.4772727,7.84090909 62.5,6.93181818 C63.5227273,5.90909091 64.6590909,5.45454545 66.1363636,5.45454545 C67.6136364,5.45454545 68.75,6.02272727 69.7727273,7.04545455 C70.7954545,8.06818182 71.25,9.43181818 71.25,10.9090909 L71.25,11.3636364 L71.1363636,11.3636364 Z M63.9772727,9.31818182 L68.0681818,9.31818182 C67.8409091,8.06818182 67.1590909,7.38636364 66.1363636,7.38636364 C65.5681818,7.38636364 65.1136364,7.5 64.6590909,7.84090909 C64.3181818,8.29545455 64.0909091,8.75 63.9772727,9.31818182 Z" id="e"></path>
                <path d="M79.8863636,0 L82.9545455,0 L82.9545455,15.5681818 L80,15.5681818 L80,13.8636364 L80,13.8636364 C79.0909091,15.1136364 78.0681818,15.7954545 76.7045455,15.7954545 C75.5681818,15.7954545 74.5454545,15.3409091 73.75,14.3181818 C72.9545455,13.2954545 72.5,12.0454545 72.5,10.6818182 C72.5,9.31818182 72.9545455,7.95454545 73.75,6.93181818 C74.5454545,5.90909091 75.5681818,5.34090909 76.8181818,5.34090909 C77.5,5.34090909 78.0681818,5.45454545 78.5227273,5.68181818 C78.9772727,5.90909091 79.4318182,6.36363636 79.8863636,6.93181818 L79.8863636,0 L79.8863636,0 Z M77.7272727,8.29545455 C77.2727273,8.29545455 76.8181818,8.52272727 76.3636364,8.97727273 C75.9090909,9.43181818 75.6818182,10 75.6818182,10.7954545 C75.6818182,11.3636364 75.9090909,11.9318182 76.25,12.3863636 C76.5909091,12.8409091 77.0454545,13.0681818 77.6136364,13.0681818 C78.2954545,13.0681818 78.75,12.8409091 79.2045455,12.3863636 C79.6590909,11.9318182 79.8863636,11.3636364 79.8863636,10.6818182 C79.8863636,10.1136364 79.6590909,9.54545455 79.3181818,9.09090909 C78.8636364,8.52272727 78.2954545,8.29545455 77.7272727,8.29545455 Z" id="d"></path>
                <path d="M92.3863636,0 L95.3409091,0 L95.3409091,6.93181818 C96.25,5.90909091 97.2727273,5.34090909 98.4090909,5.34090909 C99.6590909,5.34090909 100.681818,5.90909091 101.477273,6.93181818 C102.386364,7.95454545 102.840909,9.20454545 102.840909,10.6818182 C102.840909,12.0454545 102.386364,13.2954545 101.590909,14.3181818 C100.681818,15.3409091 99.7727273,15.9090909 98.5227273,15.9090909 C97.9545455,15.9090909 97.3863636,15.7954545 96.9318182,15.4545455 C96.4772727,15.1136364 95.9090909,14.6590909 95.3409091,14.0909091 L95.3409091,15.6818182 L92.3863636,15.6818182 L92.3863636,0 Z M97.5,8.40909091 C96.9318182,8.40909091 96.3636364,8.63636364 96.0227273,9.09090909 C95.6818182,9.54545455 95.4545455,10.1136364 95.4545455,10.7954545 C95.4545455,11.4772727 95.6818182,12.0454545 96.1363636,12.5 C96.5909091,12.9545455 97.0454545,13.1818182 97.7272727,13.1818182 C98.2954545,13.1818182 98.75,12.9545455 99.2045455,12.5 C99.5454545,12.0454545 99.7727273,11.4772727 99.7727273,10.7954545 C99.7727273,10.1136364 99.5454545,9.54545455 99.0909091,9.09090909 C98.5227273,8.63636364 98.0681818,8.40909091 97.5,8.40909091 Z" id="b"></path>
                <polygon id="y" points="103.75 5.56818182 106.931818 5.56818182 109.772727 11.3636364 112.386364 5.56818182 115.454545 5.56818182 109.204545 20 106.136364 20 108.409091 14.8863636"></polygon>
            </g>
        </g>
    </g>
</svg>